Coordinates
version=1
nRows=12
nColumns=24
inDegrees=yes

Units are S.I. units (second, meters, Newtons, ...)
Angles are in degrees.

endheader
time	pelvis_tilt	pelvis_list	pelvis_rotation	pelvis_tx	pelvis_ty	pelvis_tz	hip_flexion_r	hip_adduction_r	hip_rotation_r	knee_angle_r	ankle_angle_r	subtalar_angle_r	mtp_angle_r	hip_flexion_l	hip_adduction_l	hip_rotation_l	knee_angle_l	ankle_angle_l	subtalar_angle_l	mtp_angle_l	lumbar_extension	lumbar_bending	lumbar_rotation
      0.52100000	     -4.02166675	      2.75300338	      5.71086310	     -0.76899366	      1.03613669	      0.28300408	     30.96393739	     -5.34596562	     -6.17672073	     -4.17321939	     10.10018844	     -4.36696760	      1.08726847	    -15.18838252	      3.41697105	      7.25014203	     -6.01402590	     17.93999331	      8.68716169	      0.97302265	     -3.06887750	     -1.96659471	     -5.52326056
      0.52516667	     -4.00012067	      2.72865116	      5.82865391	     -0.76304982	      1.03544410	      0.28329298	     30.81066362	     -5.32008106	     -6.01799448	     -4.47094783	      9.96813473	     -4.49420166	      1.68794366	    -15.34784014	      3.30138355	      7.17185639	     -6.42344433	     17.91599883	      8.95413226	      1.27543662	     -3.04322734	     -1.79382680	     -5.83503504
      0.52933333	     -4.01521058	      2.73312903	      5.93943538	     -0.75709914	      1.03471475	      0.28361827	     30.71110726	     -5.32189075	     -5.89247517	     -4.81778161	      9.92465127	     -4.49833866	      1.72983979	    -15.48947153	      3.22678054	      7.27414876	     -6.80469603	     17.86244311	      8.98637623	      1.30235757	     -3.00217393	     -1.71313621	     -5.80180277
      0.53350000	     -3.98676721	      2.71812783	      6.04349097	     -0.75108660	      1.03409514	      0.28394904	     30.53830860	     -5.29736647	     -5.82309572	     -5.11452377	      9.72742425	     -4.56194805	      4.50953934	    -15.62170001	      3.11791533	      7.11244515	     -7.28609804	     17.83962815	      9.37038475	      3.46509354	     -2.98865997	     -1.60730070	     -5.75906726
      0.53766667	     -4.00047819	      2.70237206	      6.15225399	     -0.74502055	      1.03346359	      0.28428486	     30.40440031	     -5.27582259	     -5.78569271	     -5.42070443	      9.55032043	     -4.57985875	      4.50750180	    -15.73818855	      3.02001192	      7.16869511	     -7.71352916	     17.69254119	      9.40595124	      3.47497554	     -2.92878009	     -1.48915138	     -5.79242895
      0.54183333	     -3.97256430	      2.65462152	      6.27170233	     -0.73889423	      1.03296655	      0.28460903	     30.17732469	     -5.21780606	     -5.73722482	     -5.63770827	      9.23838561	     -4.75481697	      4.52327379	    -15.84724813	      2.86988877	      7.02972227	     -8.23740507	     17.64993578	      9.78020329	      3.60114303	     -2.87817509	     -1.29219876	     -6.03706051
      0.54600000	     -3.96416422	      2.60196709	      6.37594335	     -0.73273509	      1.03247050	      0.28495696	     29.98040540	     -5.15191689	     -5.73966339	     -5.87509228	      8.89981885	     -4.86867186	      4.56011525	    -15.93031485	      2.72177450	      6.91198223	     -8.77875041	     17.55498392	     10.09404573	      3.80035246	     -2.82152704	     -1.12101681	     -6.07984765
      0.55016667	     -3.96862188	      2.56709978	      6.47944339	     -0.72654554	      1.03202859	      0.28530542	     29.80673182	     -5.10897715	     -5.82870628	     -6.13647990	      8.53265679	     -4.87694395	      4.56655486	    -16.01234127	      2.60299465	      6.93424179	     -9.28381765	     17.34726580	     10.17342251	      3.85822370	     -2.73596650	     -0.98547781	     -6.07740328
      0.55433333	     -3.96989344	      2.49786514	      6.57818544	     -0.72033512	      1.03163327	      0.28570799	     29.59343499	     -5.01883825	     -5.81604499	     -6.31816449	      8.06850878	     -5.09929109	      4.69269809	    -16.00784657	      2.42968934	      6.66146676	     -9.96356228	     17.23970434	     10.69982550	      4.43384466	     -2.66365591	     -0.79441504	     -6.16156373
      0.55850000	     -3.91960765	      2.41239330	      6.65189055	     -0.71409270	      1.03137100	      0.28609618	     29.35954796	     -4.90957895	     -5.94338666	     -6.56909246	      7.60733236	     -5.18230964	      5.29061085	    -16.08639878	      2.24970807	      6.50460018	    -10.57452603	     16.98329826	     10.94934739	      7.08928648	     -2.66222818	     -0.56026135	     -6.10511064
      0.56266667	     -3.92463855	      2.32201932	      6.75425668	     -0.70781954	      1.03112081	      0.28644309	     29.16626429	     -4.81352574	     -6.06894526	     -6.79342772	      7.08899048	     -5.30350581	      5.28777566	    -16.08800162	      2.07322095	      6.48169855	    -11.22362387	     16.73572001	     11.05408210	      7.15680204	     -2.56468063	     -0.31269604	     -6.25996977
      0.56683333	     -3.89342147	      2.22216810	      6.82169645	     -0.70155043	      1.03095887	      0.28688601	     28.95295715	     -4.68710895	     -6.18450660	     -7.04169943	      6.53688575	     -5.48479122	      5.29764094	    -16.08776097	      1.87938594	      6.29047906	    -11.94627611	     16.48448669	     11.35138357	      7.31569843	     -2.51670111	     -0.07316936	     -6.32061917
